<svg width="80" height="80" viewBox="0 0 80 80" fill="none" xmlns="http://www.w3.org/2000/svg">
<path d="M34.2353 40.691C34.2353 44.4797 31.2714 47.2716 27.6339 47.2716C23.9964 47.2716 21.0325 44.4797 21.0325 40.691C21.0325 36.8755 23.9964 34.1104 27.6339 34.1104C31.2714 34.1104 34.2353 36.8755 34.2353 40.691ZM31.3454 40.691C31.3454 38.3233 29.6276 36.7035 27.6339 36.7035C25.6401 36.7035 23.9223 38.3235 23.9223 40.691C23.9223 43.0349 25.6401 44.6785 27.6339 44.6785C29.6276 44.6786 31.3454 43.0319 31.3454 40.691Z" fill="#FF4131"/>
<path d="M48.4766 40.691C48.4766 44.4797 45.5127 47.2716 41.8752 47.2716C38.2377 47.2716 35.2737 44.4797 35.2737 40.691C35.2737 36.8785 38.2377 34.1104 41.8752 34.1104C45.5125 34.1104 48.4766 36.8755 48.4766 40.691ZM45.5867 40.691C45.5867 38.3233 43.8689 36.7035 41.8752 36.7035C39.8814 36.7035 38.1636 38.3235 38.1636 40.691C38.1636 43.0349 39.8814 44.6785 41.8752 44.6785C43.8689 44.6786 45.5867 43.0319 45.5867 40.691Z" fill="#FFBC00"/>
<path d="M62.1243 34.508V46.3222C62.1243 51.1821 59.2583 53.1669 55.8701 53.1669C52.6808 53.1669 50.7611 51.0336 50.0372 49.2891L52.5531 48.2418C53.0011 49.3129 54.0989 50.5768 55.8672 50.5768C58.0359 50.5768 59.38 49.2386 59.38 46.7197V45.7733H59.279C58.6323 46.5714 57.3861 47.2686 55.8137 47.2686C52.5234 47.2686 49.509 44.4025 49.509 40.7147C49.509 37.0002 52.5234 34.1104 55.8137 34.1104C57.3833 34.1104 58.6293 34.8075 59.279 35.5819H59.38V34.5108H62.1243V34.508ZM59.5847 40.7147C59.5847 38.3975 58.0389 36.7035 56.0718 36.7035C54.0781 36.7035 52.4076 38.3975 52.4076 40.7147C52.4076 43.0082 54.0779 44.6785 56.0718 44.6785C58.0389 44.6786 59.5847 43.0082 59.5847 40.7147Z" fill="#0085F7"/>
<path d="M66.6489 27.584V46.869H63.8303V27.584H66.6489Z" fill="#00A94B"/>
<path d="M77.6324 42.857L79.8753 44.3523C79.1514 45.4234 77.4069 47.2687 74.3925 47.2687C70.6542 47.2687 67.8624 44.3788 67.8624 40.688C67.8624 36.7746 70.678 34.1074 74.0691 34.1074C77.4839 34.1074 79.1544 36.8251 79.7003 38.2937L80 39.0413L71.2031 42.6848C71.8766 44.0051 72.9239 44.6785 74.3925 44.6785C75.8641 44.6787 76.8847 43.9546 77.6324 42.857ZM70.7285 40.4893L76.6089 38.0476C76.2855 37.2257 75.3124 36.6532 74.1672 36.6532C72.6985 36.653 70.6542 37.9496 70.7285 40.4893Z" fill="#FF4131"/>
<path d="M10.3634 38.9796V36.1877H19.7716C19.8636 36.6743 19.9109 37.2499 19.9109 37.8729C19.9109 39.9675 19.3383 42.5575 17.493 44.403C15.698 46.2722 13.4045 47.2691 10.3664 47.2691C4.73516 47.2691 0 42.6822 0 37.0511C0 31.42 4.73516 26.833 10.3664 26.833C13.4817 26.833 15.7009 28.0554 17.3683 29.6486L15.3983 31.6186C14.2027 30.4971 12.5827 29.6249 10.3634 29.6249C6.25125 29.6249 3.03516 32.9389 3.03516 37.0511C3.03516 41.1633 6.25125 44.4774 10.3634 44.4774C13.0306 44.4774 14.5497 43.4063 15.523 42.4332C16.3122 41.6439 16.8314 40.5166 17.0361 38.9768L10.3634 38.9796Z" fill="#0085F7"/>
</svg>
