<svg width="80" height="80" viewBox="0 0 80 80" fill="none" xmlns="http://www.w3.org/2000/svg">
<path d="M7.58937 29.2549V41.4172L3.20172 29.2549H0V50.7468C1.12078 50.5872 2.24375 50.4344 3.36875 50.2878V38.6007L7.27016 49.808C8.49719 49.6657 9.72656 49.531 10.9581 49.4043V29.2549H7.58937Z" fill="#E50914"/>
<path d="M23.5554 32.6041V29.2549H14.1976V49.0908C17.3026 48.8086 20.4219 48.5761 23.5553 48.3957V45.076C21.5533 45.1918 19.5569 45.3286 17.5664 45.4852V40.4597C18.8725 40.4468 20.5922 40.4069 22.1158 40.4258V37.1061C20.8986 37.1032 18.9423 37.1232 17.5664 37.1408V32.6041H23.5554Z" fill="#E50914"/>
<path d="M25.715 29.2549V32.6041H29.241V48.1263C30.3619 48.0839 31.4853 48.0491 32.6097 48.0197V32.6041H36.1355V29.2549H25.715Z" fill="#E50914"/>
<path d="M47.6997 32.6041V29.2549H38.2952V47.9288L41.6641 47.928V40.2641H46.2306V36.9447H41.6641V32.6039L47.6997 32.6041Z" fill="#E50914"/>
<path d="M53.2278 44.9098V29.2529H49.8591V48.0936C52.9206 48.1989 55.9695 48.3534 59.0058 48.5557V45.2364C57.0852 45.1082 55.1591 44.9996 53.2278 44.9098Z" fill="#E50914"/>
<path d="M73.8603 34.9088L71.6686 29.2549H68.0239L71.9406 39.3575L67.6647 49.2686C68.8476 49.3839 70.0275 49.5071 71.2056 49.6372L73.6923 43.8746L76.1551 50.2271C77.438 50.3921 78.7176 50.5641 79.9947 50.7464L79.9998 50.7443L75.6112 39.4258L80 29.2549H76.2997L73.8603 34.9088Z" fill="#E50914"/>
<path d="M61.7831 29.2549V48.7557C62.9077 48.8418 64.0306 48.9341 65.152 49.0339V29.2549H61.7831Z" fill="#E50914"/>
</svg>
