<svg width="20" height="20" viewBox="0 0 20 20" fill="none" xmlns="http://www.w3.org/2000/svg">
<path d="M8.08836 11.0333C8.02556 11.0333 6.70816 11.0337 6.10056 11.0331C5.78776 11.0329 5.67616 10.9205 5.67616 10.6057C5.67576 9.79712 5.67556 8.98852 5.67616 8.17992C5.67636 7.86912 5.79436 7.75052 6.10316 7.75032C6.71076 7.74992 8.02096 7.75012 8.08836 7.75012C8.08836 7.69472 8.08816 6.52732 8.08836 5.98972C8.08876 5.19492 8.23056 4.43412 8.63436 3.73752C9.04776 3.02452 9.64936 2.53612 10.4204 2.25372C10.9142 2.07272 11.4268 2.00052 11.9508 2.00012C12.6064 1.99972 13.262 2.00032 13.9178 2.00152C14.1996 2.00192 14.3246 2.12652 14.3252 2.41032C14.3264 3.17092 14.3264 3.93152 14.3252 4.69192C14.3248 4.97872 14.205 5.09392 13.9168 5.09712C13.3794 5.10292 12.8416 5.09932 12.3048 5.12092C11.7626 5.12092 11.4774 5.38572 11.4774 5.94692C11.4644 6.54052 11.472 7.13472 11.472 7.74992C11.5228 7.74992 13.0658 7.74972 13.787 7.74992C14.1146 7.74992 14.2266 7.86252 14.2266 8.19192C14.2266 8.99612 14.2264 9.80052 14.2258 10.6047C14.2256 10.9293 14.1204 11.0329 13.7908 11.0331C13.0696 11.0335 11.5326 11.0333 11.4654 11.0333V17.5423C11.4654 17.8893 11.3562 17.9999 11.0138 17.9999C10.179 17.9999 9.34396 18.0001 8.50916 17.9999C8.20656 17.9999 8.08856 17.8823 8.08856 17.5797C8.08836 15.4599 8.08836 11.1077 8.08836 11.0333Z" fill="#3D6AD6"/>
</svg>
