<svg width="20" height="20" viewBox="0 0 20 20" fill="none" xmlns="http://www.w3.org/2000/svg">
<g clip-path="url(#clip0_433_2226)">
<path d="M14.0419 0H5.95811C2.67279 0 0 2.67279 0 5.95811V14.0419C0 17.3272 2.67279 20 5.95811 20H14.0419C17.3272 20 20 17.3272 20 14.0419V5.95811C20 2.67279 17.3272 0 14.0419 0ZM17.988 14.0419C17.988 16.2213 16.2213 17.988 14.0419 17.988H5.95811C3.77875 17.988 2.012 16.2213 2.012 14.0419V5.95811C2.012 3.77871 3.77875 2.012 5.95811 2.012H14.0419C16.2213 2.012 17.988 3.77871 17.988 5.95811V14.0419Z" fill="url(#paint0_linear_433_2226)"/>
<path d="M10.0008 4.82715C7.1486 4.82715 4.82812 7.14762 4.82812 9.99982C4.82812 12.852 7.1486 15.1725 10.0008 15.1725C12.8531 15.1725 15.1735 12.8521 15.1735 9.99982C15.1735 7.14759 12.8531 4.82715 10.0008 4.82715ZM10.0008 13.1606C8.25521 13.1606 6.84012 11.7455 6.84012 9.99986C6.84012 8.25423 8.25525 6.83915 10.0008 6.83915C11.7465 6.83915 13.1615 8.25423 13.1615 9.99986C13.1615 11.7455 11.7464 13.1606 10.0008 13.1606Z" fill="url(#paint1_linear_433_2226)"/>
<path d="M15.1828 6.10544C15.8674 6.10544 16.4223 5.5505 16.4223 4.86595C16.4223 4.1814 15.8674 3.62646 15.1828 3.62646C14.4983 3.62646 13.9434 4.1814 13.9434 4.86595C13.9434 5.5505 14.4983 6.10544 15.1828 6.10544Z" fill="url(#paint2_linear_433_2226)"/>
</g>
<defs>
<linearGradient id="paint0_linear_433_2226" x1="10" y1="19.9418" x2="10" y2="0.155343" gradientUnits="userSpaceOnUse">
<stop stop-color="#E09B3D"/>
<stop offset="0.3" stop-color="#C74C4D"/>
<stop offset="0.6" stop-color="#C21975"/>
<stop offset="1" stop-color="#7024C4"/>
</linearGradient>
<linearGradient id="paint1_linear_433_2226" x1="10.0008" y1="19.9416" x2="10.0008" y2="0.155205" gradientUnits="userSpaceOnUse">
<stop stop-color="#E09B3D"/>
<stop offset="0.3" stop-color="#C74C4D"/>
<stop offset="0.6" stop-color="#C21975"/>
<stop offset="1" stop-color="#7024C4"/>
</linearGradient>
<linearGradient id="paint2_linear_433_2226" x1="15.1828" y1="19.9416" x2="15.1828" y2="0.155173" gradientUnits="userSpaceOnUse">
<stop stop-color="#E09B3D"/>
<stop offset="0.3" stop-color="#C74C4D"/>
<stop offset="0.6" stop-color="#C21975"/>
<stop offset="1" stop-color="#7024C4"/>
</linearGradient>
<clipPath id="clip0_433_2226">
<rect width="20" height="20" fill="white"/>
</clipPath>
</defs>
</svg>
